<?xml version="1.0" encoding="UTF-8"?>
<svg version="1.1" xmlns="http://www.w3.org/2000/svg" width="120" height="120">
<path d="M0 0 C39.6 0 79.2 0 120 0 C120 39.6 120 79.2 120 120 C80.4 120 40.8 120 0 120 C0 80.4 0 40.8 0 0 Z " fill="#000101" transform="translate(0,0)"/>
<path d="M0 0 C5.28 0 10.56 0 16 0 C14.35 1.65 12.7 3.3 11 5 C2.0319386 14.59562326 2.70044176 26.09480216 2.76953125 38.6171875 C2.7707278 40.00521807 2.77117521 41.39324946 2.7709198 42.78128052 C2.77247279 45.67406372 2.7806677 48.5667211 2.79418945 51.45947266 C2.81114506 55.12919436 2.81500378 58.79877817 2.81424427 62.46853447 C2.81451899 65.33079291 2.82004856 68.19302245 2.82724571 71.05527115 C2.83188461 73.05400495 2.83369027 75.0527447 2.83540344 77.05148315 C2.87653204 85.07652548 3.26697499 93.00824599 4 101 C4.66 101 5.32 101 6 101 C6.268125 101.969375 6.53625 102.93875 6.8125 103.9375 C7.204375 104.948125 7.59625 105.95875 8 107 C8.99 107.33 9.98 107.66 11 108 C11.66 108.99 12.32 109.98 13 111 C13.99 111.33 14.98 111.66 16 112 C16 112.66 16 113.32 16 114 C22.03164869 115.24181003 27.72759827 116.12526981 33.90405273 116.12939453 C34.89799545 116.13202301 34.89799545 116.13202301 35.91201782 116.13470459 C38.08590371 116.13907838 40.25970714 116.13620061 42.43359375 116.1328125 C43.95524613 116.1334869 45.4768984 116.13445807 46.99855042 116.13571167 C50.18174265 116.13718265 53.36490675 116.13505366 56.5480957 116.13037109 C60.6142549 116.12467904 64.68034801 116.1279533 68.74650478 116.13394356 C71.88731884 116.1375695 75.02811742 116.13640117 78.16893196 116.13381577 C79.66754222 116.13315187 81.16615392 116.13395601 82.6647625 116.13629532 C84.76539671 116.1388548 86.86592625 116.13493498 88.96655273 116.12939453 C90.15868881 116.12859894 91.35082489 116.12780334 92.5790863 116.12698364 C98.63708281 115.90211201 102.88326125 115.26902754 108 112 C108.99 112 109.98 112 111 112 C111 111.34 111 110.68 111 110 C112.66666667 108.33333333 114.33333333 106.66666667 116 105 C117.0268343 103.3497306 118.03567924 101.68756133 119 100 C119.33 100 119.66 100 120 100 C120 106.6 120 113.2 120 120 C80.4 120 40.8 120 0 120 C0 80.4 0 40.8 0 0 Z " fill="#1B1C20" transform="translate(0,0)"/>
<path d="M0 0 C0.77261673 0.00424484 1.54523346 0.00848969 2.34126282 0.01286316 C4.80729117 0.02964692 7.27250021 0.06729728 9.73828125 0.10546875 C11.41079548 0.12051604 13.08332253 0.13420437 14.75585938 0.14648438 C18.85448203 0.17954929 22.95249276 0.23132847 27.05078125 0.29296875 C26.28124814 5.78541915 25.30730534 10.46695963 21.05078125 14.29296875 C17.4146109 15.07675031 13.92663023 14.693155 10.23828125 14.41796875 C3.44305297 14.10296214 3.44305297 14.10296214 -2.67382812 16.51806641 C-5.82076651 20.26812925 -7.3182517 24.73389125 -8.94921875 29.29296875 C-9.90346729 31.20146583 -10.8794183 33.09943255 -11.88671875 34.98046875 C-13.10121855 37.43005309 -14.0818613 39.6908964 -14.94921875 42.29296875 C-15.60921875 42.29296875 -16.26921875 42.29296875 -16.94921875 42.29296875 C-16.94921875 43.61296875 -16.94921875 44.93296875 -16.94921875 46.29296875 C-21.89921875 46.29296875 -26.84921875 46.29296875 -31.94921875 46.29296875 C-31.16953396 42.39454478 -30.65260627 40.34781192 -28.875 37.03515625 C-28.45750488 36.24987549 -28.04000977 35.46459473 -27.60986328 34.65551758 C-27.16497559 33.83462646 -26.72008789 33.01373535 -26.26171875 32.16796875 C-25.80909668 31.32065186 -25.35647461 30.47333496 -24.89013672 29.6003418 C-22.0242476 24.24586979 -19.12285303 18.91045986 -16.1875 13.59375 C-14.9817052 11.35333001 -13.86458832 9.08545044 -12.76171875 6.79296875 C-9.42217335 0.34419142 -7.12588886 -0.14709568 0 0 Z " fill="#78F5F6" transform="translate(66.94921875,33.70703125)"/>
<path d="M0 0 C4.29 0 8.58 0 13 0 C11.8256993 4.69720282 10.73292151 8.73369368 7 12 C2.92154839 12.70098387 -0.90254441 12.47052122 -5 12 C-4.21258341 7.2009031 -2.50483074 4.12085057 0 0 Z " fill="#7BDAD8" transform="translate(69,53)"/>
<path d="M0 0 C2 3 2 3 1.9375 5.5 C1.78623663 8.01766821 1.78623663 8.01766821 3.1875 9.875 C5.02996899 11.27887164 5.02996899 11.27887164 7.6875 10.6875 C8.450625 10.460625 9.21375 10.23375 10 10 C10 10.66 10 11.32 10 12 C9.34 12 8.68 12 8 12 C8 13.32 8 14.64 8 16 C3.05 16 -1.9 16 -7 16 C-6.10613763 11.53068814 -5.12759489 9.05511438 -2.9375 5.1875 C-2.11572266 3.72376953 -2.11572266 3.72376953 -1.27734375 2.23046875 C-0.85582031 1.49441406 -0.43429688 0.75835937 0 0 Z " fill="#6AD3AD" transform="translate(42,64)"/>
<path d="M0 0 C0.33 0 0.66 0 1 0 C0.979375 0.804375 0.95875 1.60875 0.9375 2.4375 C0.70366379 4.93354885 0.70366379 4.93354885 2 6 C2 9.86695678 0.58090029 12.5088452 -1 16 C0.93822596 15.96694498 2.87585668 15.89750095 4.8125 15.8125 C5.89144531 15.77769531 6.97039062 15.74289063 8.08203125 15.70703125 C11.21687383 15.28394394 11.21687383 15.28394394 12.82421875 12.44921875 C13.40623047 11.23685547 13.40623047 11.23685547 14 10 C14.33 10 14.66 10 15 10 C15.125 12.375 15.125 12.375 15 15 C12.50789561 17.49210439 10.99639212 17.26015661 7.58984375 17.2734375 C6.55537109 17.26183594 6.55537109 17.26183594 5.5 17.25 C4.81035156 17.25773437 4.12070313 17.26546875 3.41015625 17.2734375 C-1.74666707 17.25333293 -1.74666707 17.25333293 -4 15 C-7.08089673 17.77280706 -8.68775452 20.06326356 -10 24 C-10.99 24 -11.98 24 -13 24 C-9.03382997 15.80615423 -4.93256271 7.66381644 0 0 Z " fill="#0A2627" transform="translate(65,49)"/>
<path d="M0 0 C0.66 0.99 1.32 1.98 2 3 C-0.875 7.875 -0.875 7.875 -2 9 C-4.32817964 9.36760731 -6.6618385 9.70241581 -9 10 C-9.33 10.99 -9.66 11.98 -10 13 C-10.89203125 13.04898438 -11.7840625 13.09796875 -12.703125 13.1484375 C-13.87359375 13.22320312 -15.0440625 13.29796875 -16.25 13.375 C-17.99023438 13.47941406 -17.99023438 13.47941406 -19.765625 13.5859375 C-22.70694334 13.96248308 -24.49949011 14.4774123 -27 16 C-27.33 15.34 -27.66 14.68 -28 14 C-27.34 14 -26.68 14 -26 14 C-26 12.02 -26 10.04 -26 8 C-25.35450195 8.00636475 -24.70900391 8.01272949 -24.04394531 8.01928711 C-21.1114589 8.0279865 -18.18212028 7.98331438 -15.25 7.9375 C-14.23421875 7.94845703 -13.2184375 7.95941406 -12.171875 7.97070312 C-6.78017538 8.041634 -6.78017538 8.041634 -2.40429688 5.37939453 C-1.12395556 3.25733823 -1.12395556 3.25733823 0 0 Z " fill="#010C0E" transform="translate(92,40)"/>
<path d="M0 0 C0.95792977 3.63852314 1.49800802 7.27091669 2 11 C4.07553648 11.5534764 5.84365964 12 8 12 C8 10.68 8 9.36 8 8 C8.66 8 9.32 8 10 8 C9.46845241 12.51815455 7.82159609 15.45285063 5 19 C3 20.125 3 20.125 1 20 C-1.70900435 18.06499689 -2.81655195 16.48155114 -4 13.375 C-4 8.41429982 -2.05180579 4.45585291 0 0 Z " fill="#74E1D8" transform="translate(46,56)"/>
<path d="M0 0 C11.55 0 23.1 0 35 0 C34 6 34 6 32 8 C32 6.02 32 4.04 32 2 C21.11 2 10.22 2 -1 2 C-0.67 1.34 -0.34 0.68 0 0 Z " fill="#6EC4C3" transform="translate(59,34)"/>
<path d="M0 0 C3.63 0 7.26 0 11 0 C10.67 0.99 10.34 1.98 10 3 C9.01 2.67 8.02 2.34 7 2 C7 2.66 7 3.32 7 4 C7.66 4 8.32 4 9 4 C8.67 5.32 8.34 6.64 8 8 C4.7 8 1.4 8 -2 8 C-1.34 5.36 -0.68 2.72 0 0 Z " fill="#7CF2F3" transform="translate(68,55)"/>
<path d="M0 0 C4.29 0 8.58 0 13 0 C13 4.29 13 8.58 13 13 C12.01 12.01 11.02 11.02 10 10 C10 9.34 10 8.68 10 8 C9.34 8 8.68 8 8 8 C8 7.34 8 6.68 8 6 C7.01 5.67 6.02 5.34 5 5 C4.34 4.01 3.68 3.02 3 2 C2.01 1.34 1.02 0.68 0 0 Z " fill="#1B1B1F" transform="translate(107,0)"/>
<path d="M0 0 C0.66 0.33 1.32 0.66 2 1 C0.83276367 2.96191406 0.83276367 2.96191406 -1 5 C-3.4519043 5.54589844 -3.4519043 5.54589844 -6.32421875 5.609375 C-7.35224609 5.64160156 -8.38027344 5.67382812 -9.43945312 5.70703125 C-10.51130859 5.72121094 -11.58316406 5.73539063 -12.6875 5.75 C-13.77095703 5.77964844 -14.85441406 5.80929688 -15.97070312 5.83984375 C-18.64721059 5.91058844 -21.32284479 5.96326156 -24 6 C-24 5.01 -24 4.02 -24 3 C-22.68644531 2.95101562 -21.37289062 2.90203125 -20.01953125 2.8515625 C-18.28383405 2.77650532 -16.54815797 2.70095877 -14.8125 2.625 C-13.94818359 2.5940625 -13.08386719 2.563125 -12.19335938 2.53125 C-7.66159468 2.322893 -4.18950339 1.87104035 0 0 Z " fill="#65C3C6" transform="translate(89,43)"/>
<path d="M0 0 C0.66 0.99 1.32 1.98 2 3 C1.34 3 0.68 3 0 3 C0.165 3.94875 0.33 4.8975 0.5 5.875 C1 9 1 9 1 11 C3.97 11 6.94 11 10 11 C10 11.66 10 12.32 10 13 C5.05 13 0.1 13 -5 13 C-4.22998773 9.14993864 -3.6738858 6.99223427 -1.9375 3.6875 C-1.57527344 2.99011719 -1.21304688 2.29273437 -0.83984375 1.57421875 C-0.56269531 1.05472656 -0.28554688 0.53523438 0 0 Z " fill="#47886D" transform="translate(40,67)"/>
<path d="M0 0 C0.99 0.33 1.98 0.66 3 1 C0.16805143 6.76878411 -2.83967544 12.40467128 -6 18 C-7.39195915 13.82412255 -5.82323219 11.86525224 -4 8 C-4.66 7.67 -5.32 7.34 -6 7 C-5.38125 6.95875 -4.7625 6.9175 -4.125 6.875 C-3.42375 6.58625 -2.7225 6.2975 -2 6 C-0.6954344 3.00384054 -0.6954344 3.00384054 0 0 Z " fill="#072224" transform="translate(54,36)"/>
<path d="M0 0 C0.33 0 0.66 0 1 0 C1.31428049 4.60944716 0.8452579 6.44342763 -2 10 C-2 11.32 -2 12.64 -2 14 C-3.32 14.33 -4.64 14.66 -6 15 C-6 15.66 -6 16.32 -6 17 C-6.66 17 -7.32 17 -8 17 C-6.67315297 12.35603538 -4.70607148 8.97454248 -2 5 C-1.28426473 3.35380887 -0.5974304 1.69271945 0 0 Z " fill="#71D4D3" transform="translate(55,39)"/>
<path d="M0 0 C4.29 0 8.58 0 13 0 C12 4 12 4 10 6 C10 4.68 10 3.36 10 2 C6.37 2 2.74 2 -1 2 C-0.67 1.34 -0.34 0.68 0 0 Z " fill="#6AADAB" transform="translate(69,53)"/>
<path d="M0 0 C0.33 0 0.66 0 1 0 C1.125 2.375 1.125 2.375 1 5 C-1 7 -1 7 -4.4765625 7.1953125 C-5.85950968 7.18201493 -7.24238654 7.15816232 -8.625 7.125 C-9.33140625 7.11597656 -10.0378125 7.10695313 -10.765625 7.09765625 C-12.51056098 7.07407603 -14.25532295 7.03820461 -16 7 C-15.67 6.01 -15.34 5.02 -15 4 C-15 4.66 -15 5.32 -15 6 C-13.06177404 5.96694498 -11.12414332 5.89750095 -9.1875 5.8125 C-8.10855469 5.77769531 -7.02960938 5.74289063 -5.91796875 5.70703125 C-2.78312617 5.28394394 -2.78312617 5.28394394 -1.17578125 2.44921875 C-0.78777344 1.64097656 -0.39976563 0.83273438 0 0 Z " fill="#1E4245" transform="translate(79,59)"/>
<path d="M0 0 C-1.15173355 2.46800047 -2.04783565 4.04783565 -4 6 C-4.70710678 7.64991582 -5.37943989 9.31562256 -6 11 C-6.99 11 -7.98 11 -9 11 C-8.21572648 9.35063087 -7.42234741 7.70558873 -6.625 6.0625 C-6.18414062 5.14597656 -5.74328125 4.22945313 -5.2890625 3.28515625 C-3.77251613 0.59673314 -3.08231022 0 0 0 Z " fill="#0F2F32" transform="translate(61,62)"/>
<path d="M0 0 C0.33 0.66 0.66 1.32 1 2 C0.34 2 -0.32 2 -1 2 C-1.33 2.99 -1.66 3.98 -2 5 C-4.64 5 -7.28 5 -10 5 C-10.66 3.68 -11.32 2.36 -12 1 C-9.525 1.495 -9.525 1.495 -7 2 C-7 2.66 -7 3.32 -7 4 C-6.01 4 -5.02 4 -4 4 C-4 3.34 -4 2.68 -4 2 C-2.68 1.34 -1.36 0.68 0 0 Z " fill="#5CB18D" transform="translate(51,74)"/>
<path d="M0 0 C1.125 1.75 1.125 1.75 2 4 C1.125 6.25 1.125 6.25 0 8 C-1.66666667 8 -3.33333333 8 -5 8 C-3.62845496 5.04590299 -2.01136276 2.55991624 0 0 Z " fill="#060B0D" transform="translate(61,62)"/>
<path d="M0 0 C0.66 0 1.32 0 2 0 C1.46968862 4.5076467 -0.25221116 7.41954788 -3 11 C-3.66 11 -4.32 11 -5 11 C-5 10.01 -5 9.02 -5 8 C-4.01 8 -3.02 8 -2 8 C-2 6.68 -2 5.36 -2 4 C-1.34 4 -0.68 4 0 4 C0 2.68 0 1.36 0 0 Z " fill="#77D2CB" transform="translate(54,64)"/>
<path d="M0 0 C0.66 0 1.32 0 2 0 C2 0.66 2 1.32 2 2 C3.32 2.33 4.64 2.66 6 3 C6 4.32 6 5.64 6 7 C3.53199953 5.84826645 1.95216435 4.95216435 0 3 C0 2.01 0 1.02 0 0 Z " fill="#74F0C3" transform="translate(43,69)"/>
<path d="M0 0 C2 0 2 0 4.625 2.375 C7 5 7 5 7 7 C6.01 7 5.02 7 4 7 C4 6.34 4 5.68 4 5 C3.01 5 2.02 5 1 5 C0.67 3.35 0.34 1.7 0 0 Z " fill="#62CD9D" transform="translate(40,71)"/>
<path d="M0 0 C0.33 0 0.66 0 1 0 C1.36666667 5.5 1.36666667 5.5 -0.375 7.875 C-2 9 -2 9 -4 9 C-3.71125 8.443125 -3.4225 7.88625 -3.125 7.3125 C-1.9586747 4.91505355 -0.9660119 2.48403061 0 0 Z " fill="#6AC0C1" transform="translate(55,39)"/>
<path d="M0 0 C0.66 0 1.32 0 2 0 C0.7508258 3.45925163 -0.67527795 6.14693203 -3 9 C-2.25 2.25 -2.25 2.25 0 0 Z " fill="#031B18" transform="translate(42,60)"/>
<path d="M0 0 C2.66735273 2.48952921 4.55746343 4.63408134 6 8 C3.64035727 7.59316505 2.14065912 7.10185661 0.1875 5.6875 C-1 4 -1 4 -0.6875 1.8125 C-0.460625 1.214375 -0.23375 0.61625 0 0 Z " fill="#7AF3D7" transform="translate(43,64)"/>
<path d="M0 0 C0.66 0.99 1.32 1.98 2 3 C0.515 5.475 0.515 5.475 -1 8 C-1.99 7.67 -2.98 7.34 -4 7 C-2.68 4.69 -1.36 2.38 0 0 Z " fill="#062225" transform="translate(92,40)"/>
</svg>
